<svg width="31" height="24" viewBox="0 0 31 24" fill="none" xmlns="http://www.w3.org/2000/svg">
<path d="M18.0833 11V16M5.16667 6H25.8333L23.7925 20.22C23.7225 20.7094 23.4219 21.1616 22.9481 21.49C22.4743 21.8184 21.8606 22 21.2247 22H9.77534C9.13937 22 8.52573 21.8184 8.05193 21.49C7.57813 21.1616 7.27746 20.7094 7.2075 20.22L5.16667 6ZM9.48729 3.147C9.69622 2.80397 10.0268 2.514 10.4406 2.31091C10.8543 2.10782 11.334 2 11.8239 2H19.1761C19.6662 1.99981 20.1462 2.10755 20.5602 2.31064C20.9742 2.51374 21.305 2.80381 21.514 3.147L23.25 6H7.75L9.48729 3.147V3.147ZM2.58334 6H28.4167H2.58334ZM12.9167 11V16V11Z" stroke="white" stroke-width="2" stroke-linecap="round" stroke-linejoin="round"/>
</svg>
