<svg width="33" height="24" viewBox="0 0 33 24" fill="none" xmlns="http://www.w3.org/2000/svg">
<g clip-path="url(#clip0_103_238)">
<path d="M31.0475 5.54667L25.6667 1.61333C25.3111 1.35604 24.8299 1.21161 24.3283 1.21161C23.8267 1.21161 23.3456 1.35604 22.99 1.61333L3.91417 15.4667L2.1725 20.9333C2.11242 21.1332 2.11448 21.3402 2.17853 21.5394C2.24258 21.7386 2.367 21.9249 2.54271 22.0846C2.71841 22.2443 2.94097 22.3735 3.1941 22.4627C3.44724 22.5518 3.72457 22.5988 4.00583 22.6C4.13689 22.6096 4.26894 22.6096 4.4 22.6L11.9992 21.3333L31.0475 7.49333C31.4013 7.23474 31.5999 6.88479 31.5999 6.52C31.5999 6.15521 31.4013 5.80526 31.0475 5.54667ZM11.0825 20.1333L3.96 21.22L5.5825 16.14L19.855 5.8L25.355 9.8L11.0825 20.1333ZM26.5833 8.83333L21.0833 4.83333L24.2733 2.52667L29.6817 6.52667L26.5833 8.83333Z" fill="white"/>
</g>
<defs>
<clipPath id="clip0_103_238">
<rect width="33" height="24" fill="white"/>
</clipPath>
</defs>
</svg>
